<svg width="49" height="59" viewBox="0 0 49 59" fill="none" xmlns="http://www.w3.org/2000/svg">
<path d="M40.6234 5.44354L25.2742 0.325491C24.7716 0.158105 24.2284 0.158105 23.7258 0.325491L8.37655 5.44354C5.93612 6.2542 3.81322 7.81332 2.30948 9.89938C0.805741 11.9854 -0.0023561 14.4923 5.15998e-06 17.0639V29.6005C5.15998e-06 48.1299 22.54 58.3635 23.5053 58.7898C23.8185 58.929 24.1573 59.0009 24.5 59.0009C24.8427 59.0009 25.1815 58.929 25.4947 58.7898C26.46 58.3635 49 48.1299 49 29.6005V17.0639C49.0024 14.4923 48.1943 11.9854 46.6905 9.89938C45.1868 7.81332 43.0639 6.2542 40.6234 5.44354ZM36.0591 24.0072L25.5927 34.4736C25.1644 34.9048 24.6547 35.2466 24.0932 35.4791C23.5318 35.7117 22.9297 35.8304 22.322 35.8284H22.2411C21.621 35.8189 21.0092 35.6838 20.4428 35.4311C19.8765 35.1784 19.3672 34.8135 18.9459 34.3584L13.2962 28.4784C13.0515 28.2514 12.8558 27.9768 12.721 27.6715C12.5863 27.3661 12.5154 27.0364 12.5126 26.7027C12.5098 26.3689 12.5753 26.0381 12.705 25.7306C12.8346 25.423 13.0258 25.1452 13.2667 24.9142C13.5076 24.6831 13.7931 24.5038 14.1058 24.3871C14.4185 24.2704 14.7518 24.2188 15.0851 24.2355C15.4185 24.2522 15.7449 24.3368 16.0443 24.4842C16.3438 24.6316 16.61 24.8386 16.8266 25.0925L22.3244 30.8255L32.585 20.5355C33.0471 20.0893 33.6659 19.8423 34.3083 19.8479C34.9507 19.8535 35.5652 20.1111 36.0195 20.5654C36.4737 21.0196 36.7314 21.6341 36.7369 22.2765C36.7425 22.9189 36.4956 23.5378 36.0493 23.9998L36.0591 24.0072Z" fill="url(#paint0_linear_3_112)"/>
<defs>
<linearGradient id="paint0_linear_3_112" x1="24.5" y1="0.199951" x2="24.5" y2="59.0009" gradientUnits="userSpaceOnUse">
<stop stop-color="white"/>
<stop offset="1" stop-color="#D0D3D6"/>
</linearGradient>
</defs>
</svg>
