<svg width="192" height="52" viewBox="0 0 192 52" fill="none" xmlns="http://www.w3.org/2000/svg">
<path d="M36.3197 22.3917C35.9139 25.0445 35.0347 27.4725 33.682 29.6757C32.3293 31.834 30.6384 33.655 28.6094 35.1388C26.6254 36.5776 24.3935 37.6342 21.9136 38.3087C19.4336 38.9382 16.8635 39.0506 14.2032 38.6459V48.8975H0V0H14.2032C17.6301 0 20.8089 0.517077 23.7397 1.55123C26.6705 2.54042 29.1505 4.00173 31.1795 5.93515C33.2085 7.82361 34.6965 10.1617 35.6434 12.9494C36.6353 15.7371 36.8608 18.8846 36.3197 22.3917ZM22.1165 19.4241C22.1165 18.1202 21.6656 17.0186 20.7638 16.1193C19.862 15.2201 18.7573 14.7704 17.4497 14.7704H14.2032V24.1453H17.4497C18.7573 24.1453 19.862 23.6956 20.7638 22.7964C21.6656 21.8521 22.1165 20.7281 22.1165 19.4241Z" fill="white"/>
<path d="M72.3446 34.7341V48.8975H38.3244V0H72.3446V14.1634H52.5277V18.5473H69.0981V30.4176H52.5277V34.7341H72.3446Z" fill="white"/>
<path d="M150.855 0V31.227C150.855 33.7449 150.359 36.128 149.367 38.3761C148.375 40.5793 147.022 42.5128 145.309 44.1764C143.641 45.7951 141.679 47.099 139.425 48.0882C137.17 49.0324 134.781 49.5045 132.256 49.5045C129.73 49.5045 127.341 49.0324 125.086 48.0882C122.877 47.099 120.915 45.7951 119.202 44.1764C117.534 42.5128 116.204 40.5793 115.212 38.3761C114.22 36.128 113.724 33.7449 113.724 31.227V0H127.927V30.5525C127.927 31.6766 128.355 32.6658 129.212 33.5201C130.114 34.3294 131.128 34.7341 132.256 34.7341C133.428 34.7341 134.442 34.3294 135.299 33.5201C136.201 32.6658 136.652 31.6766 136.652 30.5525V0H150.855ZM99.1823 14.1634V32.7782C99.1823 33.6775 99.3401 34.4868 99.6557 35.2062C99.9713 35.8807 100.4 36.4652 100.941 36.9598C101.482 37.4094 102.091 37.7691 102.767 38.0389C103.488 38.2637 104.21 38.3761 104.931 38.3761C105.743 38.3761 106.667 38.0839 107.704 37.4993C108.786 36.9148 109.778 36.2179 110.68 35.4086L118.729 46.3346C116.925 48.358 115.009 49.7968 112.98 50.6511C110.951 51.5504 108.764 52 106.419 52C103.939 52 101.482 51.5504 99.047 50.6511C96.6121 49.7968 94.3802 48.6053 92.3512 47.0765C90.3672 45.5028 88.6989 43.6818 87.3462 41.6135C86.0386 39.5002 85.227 37.2296 84.9114 34.8016V14.1634H75.1044V0H108.922V14.1634H99.1823Z" fill="#FFC700"/>
<path d="M192 0L179.352 24.415L192 48.8975H175.971L166.975 31.4968V48.8975H152.772V0H166.975V17.4008L175.971 0H192Z" fill="white"/>
</svg>
